<?xml version="1.0" encoding="UTF-8"?><svg id="Ebene_1" xmlns="http://www.w3.org/2000/svg" viewBox="0 0 150 150"><defs><style>.cls-1{fill:#fff;}.cls-1,.cls-2{stroke-width:0px;}.cls-2{fill:#00289d;}</style></defs><circle class="cls-1" cx="75.07" cy="75.64" r="74.1"/><path class="cls-2" d="m52.38,75.41c-3.95,0-5.93,5.2-5.93,15.61s1.92,15.33,5.75,15.33c3.6,0,5.4-5.27,5.4-15.81s-1.74-15.12-5.23-15.12Z"/><path class="cls-2" d="m75.07,6.51C36.89,6.51,5.93,37.46,5.93,75.64s30.95,69.13,69.13,69.13,69.13-30.95,69.13-69.13S113.25,6.51,75.07,6.51Zm38.62,71.4c-6.9.55-10.35,5.02-10.35,13.4,0,3.78.85,7.09,2.56,9.94,1.74,2.72,3.82,4.07,6.22,4.07.23,0,.47-.01.73-.03.25-.02.53-.06.84-.1v25.48c-1.4.18-2.62.31-3.66.38-1.05.07-1.92.1-2.62.1-6.97,0-12.81-2.49-17.49-7.46-3.18-3.36-5.75-7.96-7.73-13.81-.84-2.47-1.48-4.97-1.97-7.5v26.28h-23.83c.04-.78.08-1.68.12-2.69.04-1.01.1-2.19.17-3.52.08-.83.14-2.09.17-3.8-2.25,4.33-4.44,7.34-6.57,9.05-2.09,1.66-4.67,2.49-7.73,2.49-6.32,0-11.27-3.36-14.88-10.08-3.57-6.72-5.35-16.07-5.35-28.04,0-12.57,1.74-22.31,5.23-29.21,3.49-6.95,8.41-10.43,14.76-10.43,3.49,0,6.3.92,8.43,2.76,2.25,1.84,4.42,5.04,6.51,9.6-.12-2.39-.17-3.84-.17-4.35l-.23-7.53V12.01h23.36v69.24c1.27-6.42,3.76-12.07,7.49-16.95,5.62-7.32,12.71-10.98,21.27-10.98.5,0,1.14.02,1.92.07.77.05,1.7.12,2.79.21v24.31Z"/></svg>